<mxfile host="app.diagrams.net" agent="Mozilla/5.0 (Windows NT 10.0; Win64; x64) AppleWebKit/537.36 (KHTML, like Gecko) Chrome/127.0.0.0 Safari/537.36 Edg/127.0.0.0" version="24.7.5">
  <diagram name="Pagina-1" id="oV1SX0zPOyyUclpaV-p_">
    <mxGraphModel dx="1980" dy="1081" grid="1" gridSize="10" guides="1" tooltips="1" connect="1" arrows="1" fold="1" page="1" pageScale="1" pageWidth="827" pageHeight="1169" math="0" shadow="0">
      <root>
        <mxCell id="0" />
        <mxCell id="1" parent="0" />
        <mxCell id="LYcKrU_p4_sUU8tXamLQ-7" style="edgeStyle=orthogonalEdgeStyle;rounded=0;orthogonalLoop=1;jettySize=auto;html=1;strokeWidth=3;" parent="1" source="LYcKrU_p4_sUU8tXamLQ-3" target="LYcKrU_p4_sUU8tXamLQ-4" edge="1">
          <mxGeometry relative="1" as="geometry" />
        </mxCell>
        <mxCell id="LYcKrU_p4_sUU8tXamLQ-3" value="&lt;div style=&quot;&quot;&gt;&lt;span style=&quot;background-color: initial;&quot;&gt;&lt;font style=&quot;font-size: 16px;&quot;&gt;Find last written module via # times rewritten&lt;/font&gt;&lt;/span&gt;&lt;/div&gt;" style="shape=parallelogram;perimeter=parallelogramPerimeter;whiteSpace=wrap;html=1;fixedSize=1;align=center;fillColor=#365F91;strokeColor=#000000;fontColor=#FFFFFF;" parent="1" vertex="1">
          <mxGeometry x="80" y="120" width="360" height="60" as="geometry" />
        </mxCell>
        <mxCell id="LYcKrU_p4_sUU8tXamLQ-8" style="edgeStyle=orthogonalEdgeStyle;rounded=0;orthogonalLoop=1;jettySize=auto;html=1;exitX=0.5;exitY=1;exitDx=0;exitDy=0;entryX=0.5;entryY=0;entryDx=0;entryDy=0;strokeWidth=3;" parent="1" source="LYcKrU_p4_sUU8tXamLQ-4" target="LYcKrU_p4_sUU8tXamLQ-5" edge="1">
          <mxGeometry relative="1" as="geometry" />
        </mxCell>
        <mxCell id="LYcKrU_p4_sUU8tXamLQ-4" value="&lt;font style=&quot;font-size: 16px;&quot;&gt;Compute checksum CHK on module data&lt;/font&gt;" style="shape=parallelogram;perimeter=parallelogramPerimeter;whiteSpace=wrap;html=1;fixedSize=1;fontColor=#FFFFFF;fillColor=#365F91;" parent="1" vertex="1">
          <mxGeometry x="80" y="220" width="360" height="60" as="geometry" />
        </mxCell>
        <mxCell id="LYcKrU_p4_sUU8tXamLQ-10" style="edgeStyle=orthogonalEdgeStyle;rounded=0;orthogonalLoop=1;jettySize=auto;html=1;exitX=0;exitY=0.5;exitDx=0;exitDy=0;strokeWidth=3;" parent="1" source="LYcKrU_p4_sUU8tXamLQ-5" edge="1">
          <mxGeometry relative="1" as="geometry">
            <mxPoint x="130" y="760" as="targetPoint" />
          </mxGeometry>
        </mxCell>
        <mxCell id="LYcKrU_p4_sUU8tXamLQ-11" value="&lt;font style=&quot;font-size: 16px;&quot;&gt;YES&lt;/font&gt;" style="edgeLabel;html=1;align=center;verticalAlign=middle;resizable=0;points=[];labelBackgroundColor=none;textShadow=0;" parent="LYcKrU_p4_sUU8tXamLQ-10" vertex="1" connectable="0">
          <mxGeometry x="-0.8103" y="1" relative="1" as="geometry">
            <mxPoint x="24" y="-16" as="offset" />
          </mxGeometry>
        </mxCell>
        <mxCell id="NSnUTstHSVVQ5NEvwLIi-3" style="edgeStyle=orthogonalEdgeStyle;rounded=0;orthogonalLoop=1;jettySize=auto;html=1;exitX=1;exitY=0.5;exitDx=0;exitDy=0;entryX=0.5;entryY=0;entryDx=0;entryDy=0;strokeWidth=3;" edge="1" parent="1" source="LYcKrU_p4_sUU8tXamLQ-5" target="NSnUTstHSVVQ5NEvwLIi-2">
          <mxGeometry relative="1" as="geometry" />
        </mxCell>
        <mxCell id="NSnUTstHSVVQ5NEvwLIi-4" value="&lt;font style=&quot;font-size: 16px;&quot;&gt;NO&lt;/font&gt;" style="edgeLabel;html=1;align=center;verticalAlign=middle;resizable=0;points=[];fontSize=16;labelBackgroundColor=none;" vertex="1" connectable="0" parent="NSnUTstHSVVQ5NEvwLIi-3">
          <mxGeometry x="-0.6" y="-2" relative="1" as="geometry">
            <mxPoint x="-44" y="-17" as="offset" />
          </mxGeometry>
        </mxCell>
        <mxCell id="LYcKrU_p4_sUU8tXamLQ-5" value="&lt;div style=&quot;font-size: 15px;&quot;&gt;&lt;font color=&quot;#ffffff&quot; style=&quot;font-size: 15px;&quot;&gt;computed CHK&amp;nbsp;&lt;/font&gt;&lt;/div&gt;&lt;div style=&quot;font-size: 15px;&quot;&gt;&lt;font color=&quot;#ffffff&quot; style=&quot;font-size: 15px;&quot;&gt;==&amp;nbsp;&lt;/font&gt;&lt;/div&gt;&lt;div style=&quot;font-size: 15px;&quot;&gt;&lt;font color=&quot;#ffffff&quot; style=&quot;font-size: 15px;&quot;&gt;stored CHK?&amp;nbsp;&lt;/font&gt;&lt;/div&gt;" style="rhombus;whiteSpace=wrap;html=1;fillColor=#365F91;" parent="1" vertex="1">
          <mxGeometry x="175" y="320" width="170" height="170" as="geometry" />
        </mxCell>
        <mxCell id="LYcKrU_p4_sUU8tXamLQ-9" value="&lt;font color=&quot;#ffffff&quot; style=&quot;font-size: 16px;&quot;&gt;Pick selected module&lt;/font&gt;" style="rounded=1;whiteSpace=wrap;html=1;fillColor=#365F91;" parent="1" vertex="1">
          <mxGeometry x="40" y="973" width="180" height="60" as="geometry" />
        </mxCell>
        <mxCell id="NSnUTstHSVVQ5NEvwLIi-12" style="edgeStyle=orthogonalEdgeStyle;rounded=0;orthogonalLoop=1;jettySize=auto;html=1;exitX=0;exitY=0.5;exitDx=0;exitDy=0;strokeWidth=3;" edge="1" parent="1">
          <mxGeometry relative="1" as="geometry">
            <mxPoint x="375" y="760" as="sourcePoint" />
            <mxPoint x="130" y="760" as="targetPoint" />
            <Array as="points">
              <mxPoint x="200" y="760" />
              <mxPoint x="200" y="760" />
            </Array>
          </mxGeometry>
        </mxCell>
        <mxCell id="NSnUTstHSVVQ5NEvwLIi-13" value="&lt;font style=&quot;font-size: 16px;&quot;&gt;YES&lt;/font&gt;" style="edgeLabel;html=1;align=center;verticalAlign=middle;resizable=0;points=[];labelBackgroundColor=none;" vertex="1" connectable="0" parent="NSnUTstHSVVQ5NEvwLIi-12">
          <mxGeometry x="-0.8125" relative="1" as="geometry">
            <mxPoint x="8" y="-20" as="offset" />
          </mxGeometry>
        </mxCell>
        <mxCell id="NSnUTstHSVVQ5NEvwLIi-1" value="&lt;div style=&quot;font-size: 15px;&quot;&gt;&lt;font color=&quot;#ffffff&quot; style=&quot;font-size: 15px;&quot;&gt;computed CHK&amp;nbsp;&lt;/font&gt;&lt;/div&gt;&lt;div style=&quot;font-size: 15px;&quot;&gt;&lt;font color=&quot;#ffffff&quot; style=&quot;font-size: 15px;&quot;&gt;==&amp;nbsp;&lt;/font&gt;&lt;/div&gt;&lt;div style=&quot;font-size: 15px;&quot;&gt;&lt;font color=&quot;#ffffff&quot; style=&quot;font-size: 15px;&quot;&gt;stored CHK?&amp;nbsp;&lt;/font&gt;&lt;/div&gt;" style="rhombus;whiteSpace=wrap;html=1;fillColor=#365F91;" vertex="1" parent="1">
          <mxGeometry x="375" y="675" width="170" height="170" as="geometry" />
        </mxCell>
        <mxCell id="NSnUTstHSVVQ5NEvwLIi-5" style="edgeStyle=orthogonalEdgeStyle;rounded=0;orthogonalLoop=1;jettySize=auto;html=1;exitX=0.5;exitY=1;exitDx=0;exitDy=0;entryX=0.5;entryY=0;entryDx=0;entryDy=0;strokeWidth=3;" edge="1" parent="1" target="NSnUTstHSVVQ5NEvwLIi-1">
          <mxGeometry relative="1" as="geometry">
            <mxPoint x="460" y="644.0000000000002" as="sourcePoint" />
          </mxGeometry>
        </mxCell>
        <mxCell id="NSnUTstHSVVQ5NEvwLIi-2" value="&lt;font color=&quot;#ffffff&quot; style=&quot;font-size: 16px;&quot;&gt;Compute checksum CHK on the other module&lt;/font&gt;" style="shape=parallelogram;perimeter=parallelogramPerimeter;whiteSpace=wrap;html=1;fixedSize=1;fillColor=#365F91;" vertex="1" parent="1">
          <mxGeometry x="280" y="584" width="360" height="60" as="geometry" />
        </mxCell>
        <mxCell id="NSnUTstHSVVQ5NEvwLIi-18" style="edgeStyle=orthogonalEdgeStyle;rounded=0;orthogonalLoop=1;jettySize=auto;html=1;exitX=0.5;exitY=1;exitDx=0;exitDy=0;entryX=0.5;entryY=0;entryDx=0;entryDy=0;strokeWidth=3;" edge="1" parent="1" source="NSnUTstHSVVQ5NEvwLIi-14" target="NSnUTstHSVVQ5NEvwLIi-15">
          <mxGeometry relative="1" as="geometry" />
        </mxCell>
        <mxCell id="NSnUTstHSVVQ5NEvwLIi-14" value="&lt;font color=&quot;#ffffff&quot; style=&quot;font-size: 16px;&quot;&gt;Initialize both modules with default values&lt;/font&gt;" style="shape=parallelogram;perimeter=parallelogramPerimeter;whiteSpace=wrap;html=1;fixedSize=1;fillColor=#365F91;" vertex="1" parent="1">
          <mxGeometry x="450" y="865" width="360" height="60" as="geometry" />
        </mxCell>
        <mxCell id="NSnUTstHSVVQ5NEvwLIi-15" value="&lt;font color=&quot;#ffffff&quot; style=&quot;font-size: 16px;&quot;&gt;Pick first module&lt;/font&gt;" style="rounded=1;whiteSpace=wrap;html=1;fillColor=#365F91;" vertex="1" parent="1">
          <mxGeometry x="540" y="975" width="180" height="60" as="geometry" />
        </mxCell>
        <mxCell id="NSnUTstHSVVQ5NEvwLIi-16" style="edgeStyle=orthogonalEdgeStyle;rounded=0;orthogonalLoop=1;jettySize=auto;html=1;exitX=1;exitY=0.5;exitDx=0;exitDy=0;entryX=0.5;entryY=0;entryDx=0;entryDy=0;strokeWidth=3;" edge="1" parent="1" source="NSnUTstHSVVQ5NEvwLIi-1" target="NSnUTstHSVVQ5NEvwLIi-14">
          <mxGeometry relative="1" as="geometry" />
        </mxCell>
        <mxCell id="NSnUTstHSVVQ5NEvwLIi-17" value="&lt;font style=&quot;font-size: 16px;&quot;&gt;NO&lt;/font&gt;" style="edgeLabel;html=1;align=center;verticalAlign=middle;resizable=0;points=[];labelBackgroundColor=none;" vertex="1" connectable="0" parent="NSnUTstHSVVQ5NEvwLIi-16">
          <mxGeometry x="-0.5167" y="1" relative="1" as="geometry">
            <mxPoint x="-31" y="-19" as="offset" />
          </mxGeometry>
        </mxCell>
        <mxCell id="NSnUTstHSVVQ5NEvwLIi-19" value="" style="endArrow=classic;html=1;rounded=0;strokeWidth=3;" edge="1" parent="1">
          <mxGeometry width="50" height="50" relative="1" as="geometry">
            <mxPoint x="130" y="762" as="sourcePoint" />
            <mxPoint x="130" y="972" as="targetPoint" />
          </mxGeometry>
        </mxCell>
        <mxCell id="NSnUTstHSVVQ5NEvwLIi-20" value="&lt;div style=&quot;&quot;&gt;&lt;span style=&quot;background-color: initial;&quot;&gt;&lt;font color=&quot;#ffffff&quot; style=&quot;font-size: 16px;&quot;&gt;Select the other module&lt;/font&gt;&lt;/span&gt;&lt;/div&gt;" style="shape=parallelogram;perimeter=parallelogramPerimeter;whiteSpace=wrap;html=1;fixedSize=1;align=center;fillColor=#365F91;" vertex="1" parent="1">
          <mxGeometry x="280" y="480" width="360" height="60" as="geometry" />
        </mxCell>
      </root>
    </mxGraphModel>
  </diagram>
</mxfile>
